# Blender v2.61 (sub 0) OBJ File: ''
# www.blender.org
mtllib ball-lamp.mtl
o Cube
v 0.007600 -0.020000 -0.007600
v 0.007600 -0.020000 0.007600
v -0.007600 -0.020000 0.007600
v -0.007600 -0.020000 -0.007600
v 0.007600 0.020000 -0.007600
v -0.007600 0.020000 -0.007600
v -0.007600 0.020000 0.007600
v 0.007600 0.020000 0.007600
v 0.020000 -0.007600 -0.007600
v 0.020000 0.007600 -0.007600
v 0.020000 0.007600 0.007600
v 0.020000 -0.007600 0.007600
v 0.007600 -0.007600 0.020000
v 0.007600 0.007600 0.020000
v -0.007600 0.007600 0.020000
v -0.007600 -0.007600 0.020000
v -0.020000 -0.007600 0.007600
v -0.020000 0.007600 0.007600
v -0.020000 0.007600 -0.007600
v -0.020000 -0.007600 -0.007600
v 0.007600 0.007600 -0.020000
v 0.007600 -0.007600 -0.020000
v -0.007600 -0.007600 -0.020000
v -0.007600 0.007600 -0.020000
vt 0.812500 0.812500
vt 0.250000 0.812500
vt 0.250000 0.250000
vt 0.812500 0.250000
vn 0.000000 -1.000000 0.000000
vn 0.000000 1.000000 -0.000000
vn 1.000000 -0.000000 0.000000
vn -0.000000 -0.000000 1.000000
vn -1.000000 -0.000000 -0.000000
vn 0.000000 0.000000 -1.000000
vn 0.707107 -0.707107 0.000000
vn -0.000000 -0.707107 0.707107
vn 0.000000 -0.707107 -0.707107
vn -0.707107 -0.707107 -0.000000
vn 0.000000 0.707107 -0.707107
vn -0.707107 0.707107 -0.000000
vn 0.707107 0.707107 0.000000
vn -0.000000 0.707107 0.707107
vn 0.707107 0.000000 -0.707107
vn 0.707107 -0.000000 0.707107
vn -0.707107 -0.000000 0.707107
vn -0.707107 0.000000 -0.707107
vn 0.577350 -0.577350 -0.577350
vn 0.577350 -0.577350 0.577350
vn -0.577350 -0.577350 0.577350
vn -0.577350 -0.577350 -0.577350
vn 0.577350 0.577350 -0.577350
vn 0.577350 0.577350 0.577351
vn -0.577350 0.577350 0.577350
vn -0.577350 0.577350 -0.577350
usemtl Material
s off
f 1/1/1 2/2/1 3/3/1 4/4/1
f 7/1/2 8/2/2 5/3/2 6/4/2
f 11/1/3 12/2/3 9/3/3 10/4/3
f 15/1/4 16/2/4 13/3/4 14/4/4
f 19/1/5 20/2/5 17/3/5 18/4/5
f 23/1/6 24/2/6 21/3/6 22/4/6
f 1/2/7 9/4/7 12/3/7 2/3/7
f 16/2/8 3/1/8 2/4/8 13/3/8
f 22/2/9 1/1/9 4/4/9 23/3/9
f 20/2/10 4/2/10 3/1/10 17/3/10
f 24/2/11 6/4/11 5/3/11 21/3/11
f 6/4/12 19/1/12 18/4/12 7/1/12
f 8/2/13 11/1/13 10/4/13 5/3/13
f 7/1/14 15/1/14 14/4/14 8/2/14
f 21/3/15 10/4/15 9/3/15 22/4/15
f 11/1/16 14/4/16 13/3/16 12/2/16
f 15/1/17 18/4/17 17/3/17 16/2/17
f 19/1/18 24/2/18 23/1/18 20/2/18
f 1/3/19 22/4/19 9/3/19
f 2/4/20 12/2/20 13/3/20
f 3/1/21 16/2/21 17/3/21
f 4/2/22 20/2/22 23/1/22
f 5/3/23 10/4/23 21/3/23
f 8/2/24 14/4/24 11/1/24
f 7/1/25 18/4/25 15/1/25
f 6/4/26 24/2/26 19/1/26
